HIERARCHY
ROOT Hips
{
  OFFSET 46.2181 82.2798 5.63504
  CHANNELS 6 Xposition Yposition Zposition Zrotation Xrotation Yrotation
  JOINT spine
  {
    OFFSET 0 6.24479 0.359107
    CHANNELS 3 Zrotation Xrotation Yrotation
    JOINT spine1
    {
      OFFSET 0 9.06941 0
      CHANNELS 3 Zrotation Xrotation Yrotation
      JOINT spine2
      {
        OFFSET 0 8.69014 0
        CHANNELS 3 Zrotation Xrotation Yrotation
        JOINT Neck
        {
          OFFSET 0 22.3112 1.06372
          CHANNELS 3 Zrotation Xrotation Yrotation
          JOINT Head
          {
            OFFSET 0 6.74081 0
            CHANNELS 3 Zrotation Xrotation Yrotation
            End Site
            {
              OFFSET 0 16.3165 -5.38097
            }
          }
        }
        JOINT RightShoulder
        {
          OFFSET -3.65916 9.38468 -0.509514
          CHANNELS 3 Zrotation Xrotation Yrotation
          JOINT RightArm
          {
            OFFSET 0 12.3089 0
            CHANNELS 3 Zrotation Xrotation Yrotation
            JOINT RightArmRoll
            {
              OFFSET 0 6.21375 0
              CHANNELS 3 Zrotation Xrotation Yrotation
              JOINT RightForeArm
              {
                OFFSET 0 18.0985 0
                CHANNELS 3 Zrotation Xrotation Yrotation
                JOINT RightForeArmRoll
                {
                  OFFSET 0 6.9728 0
                  CHANNELS 3 Zrotation Xrotation Yrotation
                  JOINT RightHand
                  {
                    OFFSET 0 13.9929 0
                    CHANNELS 3 Zrotation Xrotation Yrotation
                    End Site
                    {
                      OFFSET 0 0 0
                    }
                  }
                }
              }
            }
          }
        }
        JOINT LeftShoulder
        {
          OFFSET 3.65916 9.38468 -0.509514
          CHANNELS 3 Zrotation Xrotation Yrotation
          JOINT LeftArm
          {
            OFFSET 0 12.3089 0
            CHANNELS 3 Zrotation Xrotation Yrotation
            JOINT LeftArmRoll
            {
              OFFSET 0 6.21375 0
              CHANNELS 3 Zrotation Xrotation Yrotation
              JOINT LeftForeArm
              {
                OFFSET 0 18.0985 0
                CHANNELS 3 Zrotation Xrotation Yrotation
                JOINT LeftForeArmRoll
                {
                  OFFSET 0 6.97279 0
                  CHANNELS 3 Zrotation Xrotation Yrotation
                  JOINT LeftHand
                  {
                    OFFSET 0 13.9929 0
                    CHANNELS 3 Zrotation Xrotation Yrotation
                    End Site
                    {
                      OFFSET 0 0 0
                    }
                  }
                }
              }
            }
          }
        }
      }
    }
  }
  JOINT RightUpLeg
  {
    OFFSET -5.53515 -1.015 -0.851454
    CHANNELS 3 Zrotation Xrotation Yrotation
    JOINT RightUpLegRoll
    {
      OFFSET 0 16.4075 0
      CHANNELS 3 Zrotation Xrotation Yrotation
      JOINT RightLeg
      {
        OFFSET 0 -20.3181 0
        CHANNELS 3 Zrotation Xrotation Yrotation
        JOINT RightLegRoll
        {
          OFFSET 0 20.3846 0
          CHANNELS 3 Zrotation Xrotation Yrotation
          JOINT RightFoot
          {
            OFFSET 0 16.9668 0
            CHANNELS 3 Zrotation Xrotation Yrotation
            JOINT RightToeBase
            {
              OFFSET 0 14.1834 0
              CHANNELS 3 Zrotation Xrotation Yrotation
              End Site
              {
                OFFSET 0.0060118 6.86889 -0.791746
              }
            }
          }
        }
      }
    }
  }
  JOINT LeftUpLeg
  {
    OFFSET 5.53515 -1.015 -0.851454
    CHANNELS 3 Zrotation Xrotation Yrotation
    JOINT LeftUpLegRoll
    {
      OFFSET 0 16.4076 0
      CHANNELS 3 Zrotation Xrotation Yrotation
      JOINT LeftLeg
      {
        OFFSET 0 20.3181 0
        CHANNELS 3 Zrotation Xrotation Yrotation
        JOINT LeftLegRoll
        {
          OFFSET 0 20.5731 0
          CHANNELS 3 Zrotation Xrotation Yrotation
          JOINT LeftFoot
          {
            OFFSET 0 16.7783 0
            CHANNELS 3 Zrotation Xrotation Yrotation
            JOINT LeftToeBase
            {
              OFFSET 0 14.1834 0
              CHANNELS 3 Zrotation Xrotation Yrotation
              End Site
              {
                OFFSET -0.0269423 6.86889 -0.791746
              }
            }
          }
        }
      }
    }
  }
}
MOTION
Frames: 12
Frame Time: 0.00208333
69.0398 82.8224 16.2717 -23.5049 -7.19664 82.2734 -1.41312 -3.00405 1.09305 -2.76638 -2.03333 2.30125 -2.79321 -0.389941 2.34352 -10.0966 -39.3096 -5.66 22.0458 24.6133 -6.65861 18.1669 -0.855449 5.85112 -106.166 73.706 -150.965 7.15625e-015 0 1.59028e-015 0.455265 7.62753 -1.35743 -5.9447e-006 1.55864e-005 -3.00236 8.0293 -4.95139 0.697595 -80.7524 -20.4637 10.4733 -95.3229 16.3158 -11.3731 7.52188e-006 -1.07262e-006 -6.94488e-007 -9.44912 32.4664 3.59932 1.4649e-005 2.64687e-006 2.99999 -8.02894 -4.95123 -0.697552 -170.898 8.3083 -4.68647 180 -1.52564e-005 178.982 177.86 23.7222 179.34 -3.40002e-006 -2.58338e-006 0.336309 -19.9487 69.7835 21.1291 8.13351 25.196 -3.46323 -170.923 43.5124 1.79519 4.54188e-006 -4.6773e-006 -0.576824 3.03328 -20.0584 1.51817 2.20926e-006 -2.10354e-006 0.37202 14.0532 63.103 -16.368 -8.13219 25.2333 3.48587 
69.0997 82.8084 16.268 -23.532 -7.19498 82.2652 -1.41294 -3.00109 1.09373 -2.76555 -2.02827 2.30203 -2.7924 -0.384885 2.34461 -10.1333 -39.315 -5.64396 22.0376 24.6133 -6.63447 18.1613 -0.863389 5.84222 -106.678 73.5373 -150.41 -7.95139e-016 -3.18055e-015 -0 0.489058 7.56748 -1.35704 -5.9447e-006 1.55864e-005 -3.00236 8.0293 -4.95139 0.697595 -80.7563 -20.4361 10.4616 -95.3658 16.3277 -11.2901 7.52188e-006 -1.07262e-006 -6.94488e-007 -9.49065 32.5654 3.62389 1.4649e-005 2.64687e-006 2.99999 -8.02894 -4.95123 -0.697552 -170.931 8.32313 -4.68567 180 -1.52564e-005 178.98 177.896 23.7518 179.329 -3.40002e-006 -2.58338e-006 0.338043 -19.9565 69.7915 21.1364 8.13302 25.189 -3.45843 -170.934 43.4868 1.80784 4.54188e-006 -4.6773e-006 -0.577107 3.03691 -20.0399 1.5169 2.20926e-006 -2.10354e-006 0.372445 14.0957 63.1195 -16.3733 -8.1322 25.2333 3.48588 
69.1475 82.8294 16.2575 -23.5587 -7.19247 82.2563 -1.41294 -2.99821 1.09435 -2.76509 -2.0234 2.30266 -2.79195 -0.380009 2.34559 -10.1691 -39.3202 -5.62807 22.0321 24.6166 -6.61169 18.158 -0.872796 5.83095 -107.184 73.3651 -149.853 4.77083e-015 -3.18055e-015 -4.77083e-015 0.518723 7.5094 -1.35653 -5.9447e-006 1.55864e-005 -3.00236 8.0293 -4.95139 0.697595 -80.7619 -20.4078 10.4495 -95.4041 16.3397 -11.2079 7.52188e-006 -1.07262e-006 -6.94488e-007 -9.5332 32.6636 3.64877 1.4649e-005 2.64687e-006 2.99999 -8.02894 -4.95123 -0.697552 -170.965 8.33825 -4.68607 180 -1.52564e-005 178.979 177.934 23.7846 179.318 -3.40002e-006 -2.58338e-006 0.339898 -19.965 69.8003 21.1445 8.13286 25.1871 -3.45703 -170.945 43.4598 1.82103 4.54188e-006 -4.6773e-006 -0.57734 3.04025 -20.0196 1.51546 2.20926e-006 -2.10354e-006 0.372946 14.1379 63.1355 -16.3782 -8.13221 25.2333 3.48588 
69.1938 82.8711 16.2508 -23.5849 -7.18918 82.2467 -1.41309 -2.99538 1.09493 -2.76497 -2.01864 2.30317 -2.79184 -0.375255 2.34647 -10.2041 -39.3251 -5.61222 22.0287 24.6222 -6.59 18.1569 -0.883324 5.81779 -107.685 73.1904 -149.296 -3.53113e-031 -3.18055e-015 -6.36111e-015 0.544916 7.4537 -1.35595 -5.9447e-006 1.55864e-005 -3.00236 8.0293 -4.95139 0.697595 -80.769 -20.3793 10.4371 -95.4382 16.352 -11.1268 7.52188e-006 -1.07262e-006 -6.94488e-007 -9.57663 32.7606 3.67387 1.4649e-005 2.64687e-006 2.99999 -8.02894 -4.95123 -0.697552 -170.998 8.35331 -4.68737 180 -1.52564e-005 178.977 177.974 23.8192 179.305 -3.40002e-006 -2.58338e-006 0.341825 -19.974 69.8095 21.1529 8.13296 25.1891 -3.45835 -170.957 43.4312 1.83456 4.54188e-006 -4.6773e-006 -0.577535 3.04322 -19.9977 1.51388 2.20926e-006 -2.10354e-006 0.3735 14.1794 63.1509 -16.383 -8.13222 25.2333 3.48589 
69.2443 82.8745 16.2458 -23.6104 -7.18516 82.2365 -1.4134 -2.9926 1.09547 -2.76516 -2.01395 2.30359 -2.79205 -0.370568 2.34727 -10.238 -39.3293 -5.59635 22.027 24.6295 -6.56913 18.1577 -0.894633 5.80323 -108.179 73.0145 -148.74 8.74653e-015 -3.18055e-015 -3.18055e-015 0.568294 7.40078 -1.35534 -5.9447e-006 1.55864e-005 -3.00236 8.0293 -4.95139 0.697595 -80.7771 -20.3507 10.4246 -95.4685 16.3651 -11.0465 7.52188e-006 -1.07262e-006 -6.94488e-007 -9.62077 32.8559 3.69909 1.4649e-005 2.64687e-006 2.99999 -8.02894 -4.95123 -0.697552 -171.031 8.36798 -4.68925 180 -1.52563e-005 178.975 178.016 23.8544 179.293 -3.40002e-006 -2.58338e-006 0.343773 -19.9832 69.8189 21.1616 8.13327 25.1942 -3.46174 -170.969 43.4012 1.84822 4.54188e-006 -4.6773e-006 -0.577706 3.04575 -19.9743 1.51218 2.20926e-006 -2.10354e-006 0.374086 14.2197 63.1657 -16.3874 -8.13223 25.2334 3.48589 
69.2958 82.8561 16.2388 -23.6351 -7.18049 82.2258 -1.41382 -2.98983 1.09599 -2.76565 -2.00927 2.30394 -2.79255 -0.365889 2.34801 -10.2707 -39.3325 -5.58037 22.0261 24.6377 -6.54882 18.1603 -0.906377 5.78774 -108.668 72.8385 -148.186 5.56597e-015 0 -0 0.589511 7.35107 -1.35475 -5.9447e-006 1.55864e-005 -3.00236 8.0293 -4.95139 0.697595 -80.7862 -20.3222 10.412 -95.4953 16.3793 -10.9672 7.52188e-006 -1.07262e-006 -6.94488e-007 -9.66547 32.9488 3.7243 1.4649e-005 2.64687e-006 2.99999 -8.02894 -4.95123 -0.697552 -171.063 8.3819 -4.69139 180 -1.52563e-005 178.974 178.057 23.8888 179.28 -3.40002e-006 -2.58338e-006 0.345691 -19.9924 69.8283 21.1703 8.13371 25.2014 -3.46653 -170.982 43.3698 1.8618 4.54188e-006 -4.6773e-006 -0.577863 3.04778 -19.9496 1.51039 2.20926e-006 -2.10354e-006 0.374684 14.2587 63.1797 -16.3916 -8.13224 25.2334 3.48589 
69.3409 82.8769 16.2316 -23.6589 -7.17523 82.2147 -1.41435 -2.98708 1.09648 -2.76641 -2.00454 2.30426 -2.79332 -0.361162 2.34871 -10.3019 -39.3345 -5.5642 22.0255 24.646 -6.5288 18.1645 -0.918214 5.77179 -109.149 72.6634 -147.636 -1.59028e-015 -1.59028e-014 -4.77083e-015 0.609225 7.30496 -1.35425 -5.9447e-006 1.55864e-005 -3.00236 8.0293 -4.95139 0.697595 -80.796 -20.294 10.3995 -95.5189 16.3951 -10.8888 7.52188e-006 -1.07262e-006 -6.94488e-007 -9.71058 33.039 3.74942 1.4649e-005 2.64687e-006 2.99999 -8.02894 -4.95123 -0.697552 -171.096 8.39472 -4.69346 180 -1.52563e-005 178.972 178.098 23.9209 179.268 -3.40002e-006 -2.58338e-006 0.347529 -20.0013 69.8373 21.1787 8.13422 25.2097 -3.47205 -170.996 43.337 1.87511 4.54188e-006 -4.6773e-006 -0.57802 3.04923 -19.9238 1.50853 2.20926e-006 -2.10354e-006 0.375272 14.2957 63.1929 -16.3956 -8.13225 25.2334 3.4859 
69.3812 82.9084 16.2231 -23.6817 -7.16945 82.2033 -1.41498 -2.98432 1.09697 -2.76742 -1.99971 2.30458 -2.79434 -0.356329 2.3494 -10.3315 -39.3351 -5.54774 22.0247 24.6536 -6.5088 18.17 -0.9298 5.75586 -109.624 72.4904 -147.09 5.56597e-015 -1.90833e-014 -1.59028e-015 0.628089 7.26288 -1.35386 -5.9447e-006 1.55864e-005 -3.00236 8.0293 -4.95139 0.697595 -80.8063 -20.2665 10.3872 -95.5398 16.4127 -10.8114 7.52188e-006 -1.07262e-006 -6.94488e-007 -9.75592 33.126 3.77432 1.4649e-005 2.64687e-006 2.99999 -8.02894 -4.95123 -0.697552 -171.128 8.40611 -4.69517 180 -1.52563e-005 178.971 178.138 23.9494 179.256 -3.40002e-006 -2.58338e-006 0.349237 -20.0096 69.8458 21.1866 8.13474 25.218 -3.47764 -171.009 43.3027 1.88793 4.54188e-006 -4.6773e-006 -0.578189 3.05005 -19.897 1.50663 2.20926e-006 -2.10354e-006 0.375829 14.3304 63.2054 -16.3993 -8.13225 25.2334 3.4859 
69.4312 82.9169 16.2145 -23.7034 -7.16322 82.1917 -1.41567 -2.98153 1.09746 -2.76865 -1.99471 2.30493 -2.79559 -0.351332 2.35009 -10.3594 -39.3339 -5.53093 22.023 24.6599 -6.48857 18.1767 -0.940792 5.74043 -110.093 72.3206 -146.549 -6.36111e-015 -6.36111e-015 -3.18055e-015 0.646761 7.22522 -1.35365 -5.9447e-006 1.55864e-005 -3.00236 8.0293 -4.95139 0.697595 -80.8168 -20.2398 10.3752 -95.5582 16.4326 -10.7348 7.52188e-006 -1.07262e-006 -6.94488e-007 -9.80133 33.2092 3.79891 1.4649e-005 2.64687e-006 2.99999 -8.02894 -4.95123 -0.697552 -171.159 8.41571 -4.69617 180 -1.52563e-005 178.969 178.176 23.973 179.244 -3.40002e-006 -2.58338e-006 0.350765 -20.0171 69.8534 21.1937 8.13521 25.2255 -3.48262 -171.023 43.267 1.90006 4.54188e-006 -4.6773e-006 -0.578382 3.05016 -19.8692 1.5047 2.20926e-006 -2.10354e-006 0.376333 14.3625 63.2169 -16.4028 -8.13226 25.2334 3.48591 
69.4767 82.9323 16.2073 -23.7238 -7.15662 82.18 -1.41641 -2.97871 1.09795 -2.77009 -1.98949 2.30534 -2.79704 -0.346116 2.35081 -10.3853 -39.3306 -5.51367 22.0198 24.6639 -6.46783 18.1845 -0.950846 5.72598 -110.557 72.1553 -146.014 -5.56597e-015 0 -1.59028e-015 0.665895 7.19241 -1.35366 -5.9447e-006 1.55864e-005 -3.00236 8.0293 -4.95139 0.697595 -80.8272 -20.2141 10.3637 -95.5746 16.4552 -10.6591 7.52188e-006 -1.07262e-006 -6.94488e-007 -9.84666 33.2882 3.82306 1.4649e-005 2.64687e-006 2.99999 -8.02894 -4.95123 -0.697552 -171.191 8.42319 -4.69617 180 -1.52563e-005 178.968 178.211 23.9902 179.234 -3.40002e-006 -2.58338e-006 0.352063 -20.0235 69.86 21.1998 8.13555 25.2311 -3.48635 -171.037 43.23 1.9113 4.54188e-006 -4.6773e-006 -0.578613 3.04949 -19.8407 1.50278 2.20926e-006 -2.10354e-006 0.376764 14.3916 63.2276 -16.406 -8.13227 25.2334 3.48591 
69.5285 82.9513 16.2007 -23.7429 -7.14968 82.1682 -1.41719 -2.97584 1.09846 -2.77171 -1.984 2.30584 -2.79867 -0.340622 2.35156 -10.409 -39.3251 -5.49589 22.0144 24.665 -6.44632 18.193 -0.959619 5.71298 -111.015 71.9955 -145.484 -3.18055e-015 -9.54166e-015 -0 0.686146 7.16485 -1.35394 -5.9447e-006 1.55864e-005 -3.00236 8.0293 -4.95139 0.697595 -80.8375 -20.1898 10.3527 -95.5892 16.4808 -10.5843 7.52188e-006 -1.07262e-006 -6.94488e-007 -9.89173 33.3624 3.84668 1.4649e-005 2.64687e-006 2.99999 -8.02894 -4.95123 -0.697552 -171.221 8.42819 -4.69483 180 -1.52563e-005 178.967 178.243 23.9996 179.224 -3.40002e-006 -2.58338e-006 0.353079 -20.0286 69.8652 21.2047 8.1357 25.2338 -3.48814 -171.051 43.1916 1.92146 4.54188e-006 -4.6773e-006 -0.578892 3.04798 -19.8117 1.50088 2.20926e-006 -2.10354e-006 0.377099 14.4171 63.2372 -16.409 -8.13228 25.2334 3.48591 
69.5737 82.9544 16.1931 -23.7605 -7.14251 82.1565 -1.41799 -2.97289 1.099 -2.77348 -1.97816 2.30645 -2.80046 -0.334793 2.35238 -10.4304 -39.317 -5.47749 22.0064 24.6624 -6.42378 18.2022 -0.966767 5.70191 -111.469 71.8424 -144.961 0 0 -4.77083e-015 0.70817 7.14295 -1.35454 -5.9447e-006 1.55864e-005 -3.00236 8.0293 -4.95139 0.697595 -80.8472 -20.1669 10.3425 -95.6025 16.5097 -10.5104 7.52188e-006 -1.07262e-006 -6.94488e-007 -9.93638 33.4314 3.86964 1.4649e-005 2.64687e-006 2.99999 -8.02894 -4.95123 -0.697552 -171.252 8.43037 -4.69185 180 -1.52563e-005 178.967 178.27 24 179.216 -3.40002e-006 -2.58338e-006 0.353764 -20.032 69.8688 21.2082 8.13559 25.2326 -3.48734 -171.065 43.1519 1.93031 4.54188e-006 -4.6773e-006 -0.579234 3.04556 -19.7822 1.49903 2.20926e-006 -2.10354e-006 0.377319 14.4389 63.2459 -16.4118 -8.13229 25.2334 3.48592 
